<?xml version="1.0" encoding="utf-8"?>
<!-- Generator: Adobe Illustrator 28.0.0, SVG Export Plug-In . SVG Version: 6.00 Build 0)  -->
<svg version="1.1" id="Ready" xmlns="http://www.w3.org/2000/svg" xmlns:xlink="http://www.w3.org/1999/xlink" x="0px" y="0px"
	 viewBox="0 0 100 100" style="enable-background:new 0 0 100 100;" xml:space="preserve">
<style type="text/css">
	.st0{opacity:0.15;fill:#AF124A;}
	.st1{fill:#F41D69;}
</style>
<rect x="0" class="st0" width="100" height="100"/>
<g>
	<path class="st1" d="M80.3,30.9h-5.7H64v-3.3c0-6-4.9-10.8-10.8-10.8h-6.4c-6,0-10.8,4.9-10.8,10.8v3.3H25.4h-5.7v7h5.7v35.2
		c0,5.6,4.6,10.2,10.2,10.2h28.8c5.6,0,10.2-4.6,10.2-10.2V37.9h5.7V30.9z M43,27.6c0-2.1,1.7-3.8,3.8-3.8h6.4
		c2.1,0,3.8,1.7,3.8,3.8v3.3H43V27.6z M67.6,73.1c0,1.7-1.4,3.2-3.2,3.2H35.6c-1.7,0-3.2-1.4-3.2-3.2V37.9H36H64h3.6V73.1z"/>
	<rect x="39.5" y="48" class="st1" width="7" height="18.1"/>
	<rect x="53.5" y="48" class="st1" width="7" height="18.1"/>
</g>
</svg>
